<?xml version="1.0" encoding="UTF-8"?>
<svg xmlns="http://www.w3.org/2000/svg" viewBox="0 0 140 36.61">
	<defs>
		<style>.cls-1{fill:white;}</style>
	</defs>
	<g id="Layer_2" data-name="Layer 2">
		<g id="Layer_1-2" data-name="Layer 1">
			<path class="cls-1" d="M59.89,19.26C59,11.35,52.56,6.36,45.12,6.36c-8.47,0-14.84,6.51-14.84,15.08A14.65,14.65,0,0,0,45.34,36.49c6.3,0,12-3.36,13.93-9.17H51.19a6.82,6.82,0,0,1-5.81,2.81A7.16,7.16,0,0,1,38,23.43H59.76A14.87,14.87,0,0,0,59.89,19.26ZM38.44,17.81a6.67,6.67,0,0,1,.9-2.13A7.14,7.14,0,0,1,40.91,14a6.91,6.91,0,0,1,4.34-1.44A6.59,6.59,0,0,1,52,17.81Z"></path>
			<polygon class="cls-1" points="110.07 21.49 110.07 21.49 110.07 21.49 110.07 21.49"></polygon>
			<path class="cls-1" d="M132.27,7v3.24l-.12.07a10.81,10.81,0,0,0-8.5-3.78c-7.73,0-13.58,6.2-13.58,14.93,0,8.92,5.85,14.87,13.75,14.87a10.38,10.38,0,0,0,8.68-4l.12.06v3.43H140V7Zm-7,22.37c-4.36,0-7.38-3.24-7.38-7.85,0-5,3.25-8.09,7.38-8.09s7.32,3.43,7.32,8.09S129.26,29.4,125.3,29.4Z"></path>
			<polygon class="cls-1" points="108.27 35.84 98.95 35.84 91.22 28.34 91.22 14.13 86.55 14.13 86.55 7.03 91.22 7.03 91.22 0 98.95 0 98.95 7.03 108.27 7.03 108.27 14.13 98.95 14.13 98.95 28.34 108.27 28.34 108.27 35.84"></polygon>
			<polygon class="cls-1" points="0 35.84 0 14.52 7.86 7.01 19.53 7.01 27.39 14.52 27.39 35.84 19.53 35.84 19.53 14.52 7.86 14.52 7.86 35.84 0 35.84"></polygon>
			<path class="cls-1" d="M84.37,14.13c-1-5.7-6.18-7.77-10.89-7.77-6.45,0-11.13,3.86-11.13,9.18,0,3.6,2.55,6.06,7.62,7.52l.41.13c5.28,1.69,7.26,2.33,7.26,4.51a2.42,2.42,0,0,1-.84,1.92,4.23,4.23,0,0,1-3,1.1c-.4,0-3.9-.09-4.21-3.4H61.81v0c.49,6.4,6.31,9.26,11.85,9.26a13.14,13.14,0,0,0,9-3.19,8.4,8.4,0,0,0,2.73-6.5c0-6.21-5.51-7.58-10.33-8.8-3.43-.92-4.9-1.91-4.94-3.3,0-1.24,1-2.58,3.34-2.58,2.12,0,3,.9,3.29,1.89Z"></path>
		</g>
	</g>
</svg>
