<?xml version="1.0" encoding="UTF-8" standalone="no"?>
<svg xmlns="http://www.w3.org/2000/svg" version="1.1" viewBox="0 0 40 40" height="192" width="192">
	<rect height="40" width="40" fill="rgb(45,46,95)"/>
	<g transform="translate(-17.518308,-45.414133)">
		<g transform="matrix(0.78194146,0,0,0.78194146,-26.546469,5.7813751)" id="g1146" style="fill:white;fill-opacity:1;fill-rule:nonzero;stroke:none" >
			<path
				fill="white"
				d="M 95.054688,75.828125 H 87.28125 v -8.304687 m 0.996094,23.742187 h -6.78125 v 2.710938 L 76.722656,87.71875 c 3.632813,-0.667969 5.511719,-2.546875 5.511719,-5.816406 0,-0.808594 -0.117187,-1.53125 -0.34375,-2.167969 h 6.386719 m -20.339844,0 h 5.292969 c 2.171875,0 3.054687,0.84375 3.054687,2.167969 0,1.324219 -0.882812,2.191406 -3.054687,2.191406 H 67.9375 M 81.496094,69.910156 v 8.972657 c -1.230469,-2.078125 -4.0625,-3.046875 -8.265625,-3.054688 3.75,-0.382812 7.214844,-2.40625 8.265625,-5.917969 M 100.83984,56.484375 h -5.785152 l -7.773438,8.28125 v -8.28125 H 76.042969 v 10.992188 c 0,2.351562 -1.742188,3.71875 -4.054688,3.71875 -2.308593,0 -4.050781,-1.367188 -4.050781,-3.71875 V 56.484375 h -5.785156 v 11.074219 c 0,4.960937 4.003906,7.808594 8.523437,8.269531 h -8.523437 v 19.34375 H 67.9375 V 88 h 2.523438 l 5.347656,7.171875 h 25.031246 v -3.90625 h -6.781246 v -11.53125 h 6.781246 v -5.105469 l -8.289059,-8.488281 8.289059,-8.460937"
			/>
		</g>
	</g>
</svg>
